<svg xmlns:xlink="http://www.w3.org/1999/xlink" xmlns="http://www.w3.org/2000/svg" 
currentColor='#373373'
class="icon-2308439956 icon-4096376110 itemIcon-2948549974 text-primary" height="24" width="24"><defs><symbol viewBox="0 0 24 24" id="icon-category-buy_and_sell-small"><path class="cls-1" fill="#373373" d="M20.45 4h-5.67a.51.51 0 0 0-.5.5.5.5 0 0 0 .5.5H20v5.17a3.35 3.35 0 0 1-.84 2.48l-8 7.9a1.76 1.76 0 0 1-1.25.51 1.78 1.78 0 0 1-1.25-.51l-4-4A2.26 2.26 0 0 1 4 14.91a2.23 2.23 0 0 1 .66-1.59c0-.05 5.37-5.14 6.56-6.34a.48.48 0 0 0 0-.7.5.5 0 0 0-.71 0C9.28 7.46 4 12.54 3.91 12.6a3.26 3.26 0 0 0 0 4.62l4 4a2.7 2.7 0 0 0 2 .81 2.77 2.77 0 0 0 2-.8l8-7.94A4.32 4.32 0 0 0 21 10.17V4.5a.5.5 0 0 0-.55-.5z"></path><path class="cls-1" fill="#373373" d="M17 10a2 2 0 0 0 1.41-.58 2 2 0 1 0-2.82 0A1.94 1.94 0 0 0 17 10zm-1-2a1 1 0 0 1 2 0 1 1 0 0 1-1 1 1 1 0 0 1-1-1zM10.86 11.84l.63-.63a1.48 1.48 0 0 0-2-.19L9 10.5l-.49.5.51.51a1.49 1.49 0 0 0 .13 2.06c.63.64 1.32.53 2.23.09.71-.35 1.09-.42 1.39-.12a.76.76 0 0 1-.06 1.16.88.88 0 0 1-1.37 0l-.63.62a1.61 1.61 0 0 0 2.28.15l.52.51.49-.48-.56-.5a1.53 1.53 0 0 0-.09-2.15c-.57-.58-1.18-.58-2.26-.06-.68.3-1 .42-1.37.08a.67.67 0 0 1 0-1 .74.74 0 0 1 1.14-.03z"></path></symbol></defs><use xlink:href="#icon-category-buy_and_sell-small"></use></svg>