<svg xmlns:xlink="http://www.w3.org/1999/xlink" xmlns="http://www.w3.org/2000/svg" class="icon-2308439956 icon-4096376110 itemIcon-2948549974" height="24" width="24"><defs><symbol viewBox="0 0 24 24" id="icon-category-cars_and_vehicles-small"><path class="cls-1" fill="#373373" d="M18.879 9.235l-.541-2.429a.5.5 0 1 0-.976.218l.514 2.307a29.35 29.35 0 0 1-6.13.584 26.518 26.518 0 0 1-5.978-.59l1.062-3.77c.168-.578.836-.64 1.116-.64h5.843a.5.5 0 0 0 0-1H7.946a2.016 2.016 0 0 0-2.078 1.364L4.753 9.241a2.17 2.17 0 0 0-1.903 2.174v7.5a.947.947 0 0 0 1 1h2a1.068 1.068 0 0 0 .825-.39.838.838 0 0 0 .175-.658v-1.952h10v2a1.047 1.047 0 0 0 1.13 1h1.873a1.062 1.062 0 0 0 .822-.388.839.839 0 0 0 .175-.66v-7.452a2.173 2.173 0 0 0-1.971-2.18zm-15.03 2.18a1.213 1.213 0 0 1 1.306-1.213 25.34 25.34 0 0 0 6.59.713 27.958 27.958 0 0 0 6.794-.713 1.215 1.215 0 0 1 1.31 1.213v4.5h-16zm2 7.5h-2v-2h2zm14 0h-1.87c-.069 0-.126-.02-.13-.005v-1.995h2z"></path><path class="cls-1" fill="#373373" d="M16.35 14.915a.5.5 0 0 0 .5-.5v-1c0-.462.037-.5.5-.5h1a.5.5 0 0 0 0-1h-1a1.319 1.319 0 0 0-1.5 1.5v1a.5.5 0 0 0 .5.5zM6.85 13.415v1a.5.5 0 0 0 1 0v-1a1.319 1.319 0 0 0-1.5-1.5h-1a.5.5 0 0 0 0 1h1c.462 0 .5.038.5.5z"></path></symbol></defs><use xlink:href="#icon-category-cars_and_vehicles-small"></use></svg>