<svg xmlns:xlink="http://www.w3.org/1999/xlink" xmlns="http://www.w3.org/2000/svg" class="icon-2308439956 icon-4096376110 itemIcon-2948549974" height="24" width="24"><defs><symbol viewBox="0 0 24 24" id="icon-category-community-small"><path class="cls-1" fill="#373373" d="M15.06 15.23a.49.49 0 0 0-.59.38.5.5 0 0 0 .38.6c1.59.33 2.15.64 2.15 1.73V19H3v-1.06c0-1.09.56-1.4 2.15-1.73l3.45-.72A.49.49 0 0 0 9 15v-1.85a.51.51 0 0 0-.28-.45A3.07 3.07 0 0 1 6.94 10V8a3 3 0 0 1 2.91-3h.31a3 3 0 0 1 2.9 3v2a3.06 3.06 0 0 1-1.77 2.73.5.5 0 0 0-.24.67.51.51 0 0 0 .67.24A4.11 4.11 0 0 0 14.06 10V8a4 4 0 0 0-3.9-4h-.31a4 4 0 0 0-3.91 4v2A4.08 4.08 0 0 0 8 13.46v1.14l-3.06.63C3.7 15.49 2 15.85 2 17.94v1.56a.5.5 0 0 0 .5.5h15a.5.5 0 0 0 .5-.5v-1.56c0-2.09-1.7-2.45-2.94-2.71z"></path><path class="cls-1" fill="#373373" d="M19.23 12.48l-2.83-.58v-1a3.84 3.84 0 0 0 1.93-3.3V5.79A3.74 3.74 0 0 0 14.65 2h-.29a3.61 3.61 0 0 0-2 .62.5.5 0 1 0 .55.83A2.64 2.64 0 0 1 14.36 3h.29a2.75 2.75 0 0 1 2.68 2.79V7.6a2.86 2.86 0 0 1-1.64 2.53.49.49 0 0 0-.29.45v1.72a.49.49 0 0 0 .4.49l3.22.67c1.49.31 2 .59 2 1.59V16H19.5a.51.51 0 0 0-.5.5.5.5 0 0 0 .5.5h2a.5.5 0 0 0 .5-.5v-1.45c0-1.98-1.6-2.32-2.77-2.57z"></path></symbol></defs><use xlink:href="#icon-category-community-small"></use></svg>