<svg xmlns:xlink="http://www.w3.org/1999/xlink" xmlns="http://www.w3.org/2000/svg" class="icon-2308439956 icon-4096376110 itemIcon-2948549974" height="24" width="24"><defs><symbol viewBox="0 0 24 24" id="icon-category-pets-small"><path fill="#373373" d="M12.52 9.46A.79.79 0 0 0 12 9.3a.83.83 0 0 0-.6.26L7 14.1A3.55 3.55 0 0 0 7 19l.15.15a3.32 3.32 0 0 0 2.23.85 3.26 3.26 0 0 0 2.39-1l.22-.21.21.2.15.15A3.32 3.32 0 0 0 17 19a3.52 3.52 0 0 0 0-4.92zm3.77 8.82a2.32 2.32 0 0 1-3.26.1l-.34-.33.75-.74a.5.5 0 0 0 0-.71.51.51 0 0 0-.71 0l-1.13 1.14a.1.1 0 0 0 0 .05l-.5.49a2.32 2.32 0 0 1-3.26.1l-.1-.1a2.54 2.54 0 0 1 0-3.49L12 10.35l4.28 4.4a2.52 2.52 0 0 1 .01 3.53zM9 9a2.5 2.5 0 1 0-2.5-2.5A2.5 2.5 0 0 0 9 9zm0-4a1.5 1.5 0 1 1-1.5 1.5A1.5 1.5 0 0 1 9 5zM15 9a2.5 2.5 0 1 0-2.5-2.5A2.5 2.5 0 0 0 15 9zm0-4a1.5 1.5 0 1 1-1.5 1.5A1.5 1.5 0 0 1 15 5zM8 11a2.5 2.5 0 1 0-2.5 2.5A2.51 2.51 0 0 0 8 11zm-2.5 1.5A1.5 1.5 0 1 1 7 11a1.5 1.5 0 0 1-1.5 1.5zM18.5 8.5A2.5 2.5 0 1 0 21 11a2.51 2.51 0 0 0-2.5-2.5zm0 4A1.5 1.5 0 1 1 20 11a1.5 1.5 0 0 1-1.5 1.5z"></path></symbol></defs><use xlink:href="#icon-category-pets-small"></use></svg>