<svg xmlns:xlink="http://www.w3.org/1999/xlink" xmlns="http://www.w3.org/2000/svg" class="icon-2308439956 icon-4096376110 itemIcon-2948549974" height="24" width="24"><defs><symbol viewBox="0 0 24 24" id="icon-category-real_estate-small"><path class="cls-1" fill="#373373" d="M19.54 14.05a.49.49 0 0 0-.5.49L19 19h-4v-3.78a3 3 0 0 0-6 0V19H5v-4.45a.5.5 0 0 0-.5-.5.5.5 0 0 0-.5.49v5a.5.5 0 0 0 .14.35.49.49 0 0 0 .36.15h15a.49.49 0 0 0 .5-.49v-5a.5.5 0 0 0-.46-.5zm-9.49 1.17a2 2 0 0 1 4 0V19h-4z"></path><path class="cls-1" fill="#373373" d="M21.84 11.88l-9.47-8.7a.5.5 0 0 0-.68 0L8.05 6.52v-2a.5.5 0 0 0-.5-.5h-3a.5.5 0 0 0-.5.5v5.63l-1.85 1.7a.5.5 0 0 0 .68.74L12 4.22l9.13 8.4a.5.5 0 0 0 .34.13.49.49 0 0 0 .37-.16.5.5 0 0 0 0-.71zM5.05 5h2v2.38l-2 1.85z"></path><path class="cls-1" fill="#373373" d="M14.11 8.56a2.06 2.06 0 1 0-2.06 2.07 2.06 2.06 0 0 0 2.06-2.07zm-3.11 0a1.06 1.06 0 1 1 1.06 1.07A1.06 1.06 0 0 1 11 8.56z"></path></symbol></defs><use xlink:href="#icon-category-real_estate-small"></use></svg>