<svg xmlns:xlink="http://www.w3.org/1999/xlink" xmlns="http://www.w3.org/2000/svg" class="icon-2308439956 icon-4096376110 itemIcon-2948549974" height="24" width="24"><defs><symbol viewBox="0 0 24 24" id="icon-category-services-small"><path class="cls-1" fill="#373373" d="M19.676 7.15a.5.5 0 0 0-.82-.178l-2.99 2.973-1.515-.3-.28-1.49 3.008-2.992a.5.5 0 0 0-.17-.82 4.858 4.858 0 0 0-6.283 6.371c-5.474 3.976-5.647 4.15-5.712 4.215a2.971 2.971 0 1 0 4.202 4.201c.062-.062.208-.208 3.148-4.204a.5.5 0 1 0-.806-.593c-2.556 3.474-2.99 4.024-3.05 4.09a2.018 2.018 0 0 1-2.787 0 1.97 1.97 0 0 1-.008-2.78c.093-.084.86-.677 5.933-4.36a.5.5 0 0 0 .15-.635 3.857 3.857 0 0 1 4.07-5.59l-2.589 2.575a.5.5 0 0 0-.139.448l.394 2.08a.5.5 0 0 0 .393.398l2.107.42a.488.488 0 0 0 .45-.137l2.566-2.551a3.853 3.853 0 0 1-5.519 4.054.5.5 0 0 0-.438.898 4.857 4.857 0 0 0 6.685-6.093z"></path><circle class="cls-1" cx="6.996" cy="17.005" r=".625" fill="#373373"></circle></symbol></defs><use xlink:href="#icon-category-services-small"></use></svg>