<svg xmlns:xlink="http://www.w3.org/1999/xlink" xmlns="http://www.w3.org/2000/svg" aria-hidden="true" class="icon-2308439956 youtubeIcon-297977762" height="26.6" width="37.3"><defs><symbol viewBox="0 0 37.3 26.6" id="icon-footer-youtube"><path fill="none" d="M1 1h35.3v24.6H1z"></path><path fill="none" fill-rule="evenodd" stroke="#FFFFFF" stroke-miterlimit="10" stroke-width="2px" d="M34.8 3.4c-1-1.7-2-2-4.1-2.2-2.2-.1-7.5-.2-12.1-.2s-9.9.1-12 .2c-2.1.1-3.1.4-4.1 2.2C1.5 5.1 1 8.1 1 13.3s.5 8.2 1.5 9.9c1 1.7 2 2 4.1 2.2 2.1.1 7.4.2 12 .2s9.9-.1 12-.2c2.1-.1 3.1-.5 4.1-2.2 1-1.7 1.5-4.7 1.5-9.9.1-5.2-.5-8.2-1.4-9.9z" clip-rule="evenodd"></path><path fill="#FFFFFF" d="M15.1 6.8v13l10-6.5z"></path></symbol></defs><use xlink:href="#icon-footer-youtube"></use></svg>