<svg xmlns:xlink="http://www.w3.org/1999/xlink" xmlns="http://www.w3.org/2000/svg" class="icon-2308439956 icon-4096376110 itemIcon-2948549974 dropdownSelectedIcon-599504763" height="24" width="24"><defs><symbol viewBox="0 0 24 24" id="icon-category-all"><path fill="currentColor" d="M7 11a3.99 3.99 0 1 1 3.99-3.99A3.995 3.995 0 0 1 7 11zm0-6.98a2.99 2.99 0 1 0 2.99 2.99A2.993 2.993 0 0 0 7 4.02zM17 11a3.99 3.99 0 1 1 3.99-3.99A3.995 3.995 0 0 1 17 11zm0-6.98a2.99 2.99 0 1 0 2.99 2.99A2.993 2.993 0 0 0 17 4.02zM7 20.98a3.99 3.99 0 1 1 3.99-3.99A3.995 3.995 0 0 1 7 20.98zM7 14a2.99 2.99 0 1 0 2.99 2.99A2.993 2.993 0 0 0 7 14zM17 20.98a3.99 3.99 0 1 1 3.99-3.99A3.995 3.995 0 0 1 17 20.98zM17 14a2.99 2.99 0 1 0 2.99 2.99A2.993 2.993 0 0 0 17 14z" data-name="Icons"></path></symbol></defs><use xlink:href="#icon-category-all"></use></svg>