<svg xmlns:xlink="http://www.w3.org/1999/xlink" xmlns="http://www.w3.org/2000/svg" aria-hidden="true" class="icon-2308439956 icon-2912381554" height="24" width="24" focusable="false"><defs><symbol viewBox="0 0 24 24" id="icon-location-new"><path class="cls-1" id="icon-location-new-icon-location" d="M12 22a.5.5 0 0 1-.328-.122 37.485 37.485 0 0 1-3.806-3.933C5.3 14.867 4 12.194 4 10a7.914 7.914 0 0 1 2.405-5.8A8.05 8.05 0 0 1 12 2a8.05 8.05 0 0 1 5.595 2.2A7.914 7.914 0 0 1 20 10c0 2.194-1.3 4.867-3.866 7.945a37.485 37.485 0 0 1-3.806 3.933A.5.5 0 0 1 12 22zm0-19a7.055 7.055 0 0 0-4.905 1.924A6.922 6.922 0 0 0 5 10c0 1.926 1.257 4.452 3.634 7.305A37.902 37.902 0 0 0 12 20.828a37.902 37.902 0 0 0 3.366-3.523C17.743 14.452 19 11.925 19 10a6.922 6.922 0 0 0-2.095-5.076A7.055 7.055 0 0 0 12 3z"></path><path class="cls-1" d="M12 12.5a3.5 3.5 0 0 1-2.475-5.975 3.583 3.583 0 0 1 4.95 0A3.477 3.477 0 0 1 15.5 9a.5.5 0 0 1-1 0 2.484 2.484 0 0 0-.732-1.768 2.562 2.562 0 0 0-3.536 0A2.5 2.5 0 0 0 12 11.5a.5.5 0 0 1 0 1z"></path></symbol></defs><use xlink:href="#icon-location-new" fill="#3E4153"></use></svg>