<svg xmlns:xlink="http://www.w3.org/1999/xlink" xmlns="http://www.w3.org/2000/svg" class="icon-2308439956 icon-4096376110 itemIcon-2948549974" height="24" width="24"><defs><symbol viewBox="0 0 24 24" id="icon-category-vacation_rentals-small"><path class="cls-1" fill="#373373" d="M15.52 20H11a5 5 0 0 0 2-4 4.89 4.89 0 0 0-.8-2.68l1.13-3.63a3.53 3.53 0 0 1 1.85 1.44l.06.08.06.07.08.05h.25a.5.5 0 0 0 .21 0 4.41 4.41 0 0 1 2.9-.33 4.61 4.61 0 0 1 2.36 1.66.5.5 0 0 0 .7.13.51.51 0 0 0 .13-.69A5.54 5.54 0 0 0 19 10.05a5.28 5.28 0 0 0-2.65 0 9.11 9.11 0 0 0-.56-5.32 8.92 8.92 0 0 1 4 3.61.5.5 0 0 0 .86-.5 9.92 9.92 0 0 0-6-4.59 10 10 0 0 0-11 4.27.5.5 0 0 0 .06.61.51.51 0 0 0 .61.09A4.27 4.27 0 0 1 7.13 8a4.07 4.07 0 0 1 2.31 1.59l.08.08.06.06H10l.11-.05a3.47 3.47 0 0 1 2.27-.36l-.95 3A5 5 0 0 0 3 16a4.94 4.94 0 0 0 .78 2.66.39.39 0 0 0 .13.2A5 5 0 0 0 8 21h7.5a.5.5 0 0 0 .5-.5.5.5 0 0 0-.48-.5zM7.38 7a5.05 5.05 0 0 0-2-.12A9 9 0 0 1 13 4a8.2 8.2 0 0 0-3.35 4.29A5 5 0 0 0 7.38 7zm3.25 1.5a7.22 7.22 0 0 1 3.72-4.1c1.32 1.54 1.22 4 1 5.32a5 5 0 0 0-2.17-1.18 5 5 0 0 0-2.55-.04zm-.5 10.89a6.85 6.85 0 0 0-.26-5.62 3.64 3.64 0 0 1 1.68.37A3.86 3.86 0 0 1 12 16a4 4 0 0 1-1.87 3.39zm-.94-6.57a5.28 5.28 0 0 0-1-.8 3.91 3.91 0 0 1 2.19.78 5 5 0 0 0-1.19.02zm-2.59-.54a7.25 7.25 0 0 1 1.4.81 7 7 0 0 0-1.09.48 5.94 5.94 0 0 0-2.79 3.3A4.14 4.14 0 0 1 4 16a4 4 0 0 1 2.6-3.72zm-1.81 6.06a5.21 5.21 0 0 1 2.59-3.9 5.66 5.66 0 0 1 1.39-.53c1.61 2.39.43 5.24.05 6A3.56 3.56 0 0 1 8 20a4 4 0 0 1-3.21-1.66z"></path><path class="cls-1" fill="currentColor" d="M21.52 16H15a.5.5 0 0 0-.5.5.5.5 0 0 0 .5.5h6.5a.5.5 0 0 0 .5-.5.5.5 0 0 0-.48-.5z"></path></symbol></defs><use xlink:href="#icon-category-vacation_rentals-small"></use></svg>